
<svg version="1.1" id="Layer_1" xmlns="http://www.w3.org/2000/svg" x="0px" y="0px"
	 viewBox="0 0 1366 768" enable-background="new 0 0 1366 768">
<g>
	<path fill="#F0F2F5" d="M1066.6,741H597.4c-8,0-14.4-6.5-14.4-14.4V44.4c0-8,6.5-14.4,14.4-14.4h469.2c8,0,14.4,6.5,14.4,14.4
		v682.2C1081,734.5,1074.5,741,1066.6,741z"/>
</g>
<g>
	
		<line fill="none" stroke="#507B9A" stroke-width="6" stroke-linecap="round" stroke-miterlimit="10" x1="627.5" y1="571.5" x2="445" y2="571.5"/>
</g>
<polyline fill="none" stroke="#507B9A" stroke-width="6" stroke-linecap="round" stroke-miterlimit="10" points="384.6,456 
	384.6,669 831,669 "/>
<g>
	<g>
		<path fill="#F0F2F5" d="M966.5,706c-47.6,0-72.5-9.8-72.5-15V533h145v158C1039,696.2,1014.1,706,966.5,706z"/>
		<path fill="#8EA3B2" d="M1036,536v154.6c-0.9,1.3-6,4.9-20.6,7.9c-13.4,2.9-30.8,4.4-48.9,4.4s-35.5-1.6-48.9-4.4
			c-14.5-3.1-19.6-6.6-20.6-7.9V536H1036 M1042,530H891v161c0,9.9,33.8,18,75.5,18s75.5-8.1,75.5-18V530L1042,530z"/>
	</g>
	<g>
		<path fill="#F0F2F5" d="M966.5,546c-47.6,0-72.5-9.8-72.5-15s24.9-15,72.5-15s72.5,9.8,72.5,15S1014.1,546,966.5,546z"/>
		<path fill="#8EA3B2" d="M966.5,519c18.1,0,35.5,1.6,48.9,4.4c13.3,2.8,18.7,6,20.2,7.6c-1.5,1.5-6.9,4.7-20.2,7.6
			c-13.4,2.9-30.8,4.4-48.9,4.4s-35.5-1.6-48.9-4.4c-13.3-2.8-18.7-6-20.2-7.6c1.5-1.5,6.9-4.7,20.2-7.6
			C931,520.6,948.4,519,966.5,519 M966.5,513c-41.7,0-75.5,8.1-75.5,18s33.8,18,75.5,18s75.5-8.1,75.5-18S1008.2,513,966.5,513
			L966.5,513z"/>
	</g>
</g>
<g>
	<g>
		<path fill="#F0F2F5" d="M936.5,716c-47.6,0-72.5-9.8-72.5-15V543h145v158C1009,706.2,984.1,716,936.5,716z"/>
		<path fill="#8EA3B2" d="M1006,546v154.6c-0.9,1.3-6,4.9-20.6,7.9c-13.4,2.9-30.8,4.4-48.9,4.4s-35.5-1.6-48.9-4.4
			c-14.5-3.1-19.6-6.6-20.6-7.9V546H1006 M1012,540H861v161c0,9.9,33.8,18,75.5,18s75.5-8.1,75.5-18V540L1012,540z"/>
	</g>
	<g>
		<path fill="#F0F2F5" d="M936.5,556c-47.6,0-72.5-9.8-72.5-15s24.9-15,72.5-15s72.5,9.8,72.5,15S984.1,556,936.5,556z"/>
		<path fill="#8EA3B2" d="M936.5,529c18.1,0,35.5,1.6,48.9,4.4c13.3,2.8,18.7,6,20.2,7.6c-1.5,1.5-6.9,4.7-20.2,7.6
			c-13.4,2.9-30.8,4.4-48.9,4.4s-35.5-1.6-48.9-4.4c-13.3-2.8-18.7-6-20.2-7.6c1.5-1.5,6.9-4.7,20.2-7.6
			C901,530.6,918.4,529,936.5,529 M936.5,523c-41.7,0-75.5,8.1-75.5,18s33.8,18,75.5,18s75.5-8.1,75.5-18S978.2,523,936.5,523
			L936.5,523z"/>
	</g>
</g>
<polyline fill="none" stroke="#507B9A" stroke-width="6" stroke-linecap="round" stroke-miterlimit="10" points="831,695 250.5,695 
	250.5,150 1191,150 1191,152 1190,385 907,385 907,532 "/>
<path fill="none" stroke="#7F7F7F" stroke-width="6" stroke-linecap="round" stroke-miterlimit="10" d="M993,433"/>
<g>
	<path fill="#FFFFFF" d="M168.4,455.5c-7.7,0-13.9-6.2-13.9-13.9V249.4c0-7.7,6.2-13.9,13.9-13.9h284.2c7.7,0,13.9,6.2,13.9,13.9
		v192.2c0,7.7-6.2,13.9-13.9,13.9H168.4z"/>
	<path d="M452.6,236c7.4,0,13.4,6,13.4,13.4v192.2c0,7.4-6,13.4-13.4,13.4H168.4c-7.4,0-13.4-6-13.4-13.4V249.4
		c0-7.4,6-13.4,13.4-13.4H452.6 M452.6,235H168.4c-8,0-14.4,6.5-14.4,14.4v192.2c0,8,6.5,14.4,14.4,14.4h284.2
		c8,0,14.4-6.5,14.4-14.4V249.4C467,241.5,460.5,235,452.6,235L452.6,235z"/>
</g>
<g>
	<path fill="#FFFFFF" d="M155.5,299.5v-50.1c0-7.1,5.8-12.9,12.9-12.9h284.2c7.1,0,12.9,5.8,12.9,12.9v50.1H155.5z"/>
	<path fill="#21282E" d="M452.6,238c6.3,0,11.4,5.1,11.4,11.4V298H157v-48.6c0-6.3,5.1-11.4,11.4-11.4H452.6 M452.6,235H168.4
		c-8,0-14.4,6.5-14.4,14.4V301h313v-51.6C467,241.5,460.5,235,452.6,235L452.6,235z"/>
</g>
<g>
	<path fill="#FFFFFF" d="M155.5,266.5v-17.1c0-7.1,5.8-12.9,12.9-12.9h284.2c7.1,0,12.9,5.8,12.9,12.9v17.1H155.5z"/>
	<path fill="#21282E" d="M452.6,238c6.3,0,11.4,5.1,11.4,11.4V265H157v-15.6c0-6.3,5.1-11.4,11.4-11.4H452.6 M452.6,235H168.4
		c-8,0-14.4,6.5-14.4,14.4V268h313v-18.6C467,241.5,460.5,235,452.6,235L452.6,235z"/>
</g>
<g>
	<rect x="186.5" y="327.5" fill="#FFFFFF" width="153" height="127"/>
	<g>
		<path fill="#21282E" d="M338,329v124H188V329H338 M341,326H185v130h156V326L341,326z"/>
	</g>
</g>
<g>
	<rect x="371" y="329" fill="#FFFFFF" width="63" height="42"/>
	<path fill="#21282E" d="M431,332v36h-57v-36H431 M437,326h-69v48h69V326L437,326z"/>
</g>
<g>
	<rect x="369.5" y="327.5" fill="#FFFFFF" width="66" height="45"/>
	<path fill="#21282E" d="M434,329v42h-63v-42H434 M437,326h-69v48h69V326L437,326z"/>
</g>
<g>
	<rect x="369.5" y="390.5" fill="#FFFFFF" width="66" height="45"/>
	<path fill="#21282E" d="M434,392v42h-63v-42H434 M437,389h-69v48h69V389L437,389z"/>
</g>
<g>
	<rect x="186.5" y="327.5" fill="#FFFFFF" width="153" height="91"/>
	<g>
		<path fill="#21282E" d="M338,329v88H188v-88H338 M341,326H185v94h156V326L341,326z"/>
	</g>
</g>
<g>
	<circle fill="#494949" cx="421.4" cy="253" r="4.4"/>
</g>
<g>
	<circle fill="#494949" cx="433" cy="253" r="4.4"/>
</g>
<g>
	<circle fill="#494949" cx="444.6" cy="253" r="4.4"/>
</g>
<g>
	<path fill="#FFFFFF" d="M363.4,183c-6.3,0-11.4-5.1-11.4-11.4v-52.2c0-6.3,5.1-11.4,11.4-11.4h133.2c6.3,0,11.4,5.1,11.4,11.4v52.2
		c0,6.3-5.1,11.4-11.4,11.4H363.4z"/>
	<path fill="#21282E" d="M496.6,111c4.6,0,8.4,3.8,8.4,8.4v52.2c0,4.6-3.8,8.4-8.4,8.4H363.4c-4.6,0-8.4-3.8-8.4-8.4v-52.2
		c0-4.6,3.8-8.4,8.4-8.4H496.6 M496.6,105H363.4c-8,0-14.4,6.5-14.4,14.4v52.2c0,8,6.5,14.4,14.4,14.4h133.2c8,0,14.4-6.5,14.4-14.4
		v-52.2C511,111.5,504.5,105,496.6,105L496.6,105z"/>
</g>
<text transform="matrix(1 0 0 1 384.5889 154.0938)" font-family="'MuseoSans-100'" font-size="24px">ACTION</text>
<text transform="matrix(1 0 0 1 800.5889 74.0938)" font-family="'MuseoSans-100'" font-size="24px">REDUX</text>
<g>
	<path fill="#FFFFFF" d="M733.4,184c-6.3,0-11.4-5.1-11.4-11.4v-52.2c0-6.3,5.1-11.4,11.4-11.4h193.2c6.3,0,11.4,5.1,11.4,11.4v52.2
		c0,6.3-5.1,11.4-11.4,11.4H733.4z"/>
	<path fill="#21282E" d="M926.6,112c4.6,0,8.4,3.8,8.4,8.4v52.2c0,4.6-3.8,8.4-8.4,8.4H733.4c-4.6,0-8.4-3.8-8.4-8.4v-52.2
		c0-4.6,3.8-8.4,8.4-8.4H926.6 M926.6,106H733.4c-8,0-14.4,6.5-14.4,14.4v52.2c0,8,6.5,14.4,14.4,14.4h193.2c8,0,14.4-6.5,14.4-14.4
		v-52.2C941,112.5,934.5,106,926.6,106L926.6,106z"/>
</g>
<text transform="matrix(1 0 0 1 753.5889 155.0938)" font-family="'MuseoSans-100'" font-size="24px">MIDDLEWARE</text>
<g>
	<path fill="#FFFFFF" d="M1120.4,189c-6.3,0-11.4-5.1-11.4-11.4v-52.2c0-6.3,5.1-11.4,11.4-11.4h141.2c6.3,0,11.4,5.1,11.4,11.4
		v52.2c0,6.3-5.1,11.4-11.4,11.4H1120.4z"/>
	<path fill="#21282E" d="M1261.6,117c4.6,0,8.4,3.8,8.4,8.4v52.2c0,4.6-3.8,8.4-8.4,8.4h-141.2c-4.6,0-8.4-3.8-8.4-8.4v-52.2
		c0-4.6,3.8-8.4,8.4-8.4H1261.6 M1261.6,111h-141.2c-8,0-14.4,6.5-14.4,14.4v52.2c0,8,6.5,14.4,14.4,14.4h141.2
		c8,0,14.4-6.5,14.4-14.4v-52.2C1276,117.5,1269.5,111,1261.6,111L1261.6,111z"/>
</g>
<text transform="matrix(1 0 0 1 1132.5889 160.0938)" font-family="'MuseoSans-100'" font-size="24px">TRACKING</text>
<g>
	<path fill="#FFFFFF" d="M1120.4,321c-6.3,0-11.4-5.1-11.4-11.4v-82.2c0-6.3,5.1-11.4,11.4-11.4h141.2c6.3,0,11.4,5.1,11.4,11.4
		v82.2c0,6.3-5.1,11.4-11.4,11.4H1120.4z"/>
	<path fill="#21282E" d="M1261.6,219c4.6,0,8.4,3.8,8.4,8.4v82.2c0,4.6-3.8,8.4-8.4,8.4h-141.2c-4.6,0-8.4-3.8-8.4-8.4v-82.2
		c0-4.6,3.8-8.4,8.4-8.4H1261.6 M1261.6,213h-141.2c-8,0-14.4,6.5-14.4,14.4v82.2c0,8,6.5,14.4,14.4,14.4h141.2
		c8,0,14.4-6.5,14.4-14.4v-82.2C1276,219.5,1269.5,213,1261.6,213L1261.6,213z"/>
</g>
<text transform="matrix(1 0 0 1 1144.8691 262.0938)"><tspan x="0" y="0" font-family="'MuseoSans-100'" font-size="24px">UPDATE</tspan><tspan x="-7.5" y="28.8" font-family="'MuseoSans-100'" font-size="24px">PAYLOAD</tspan></text>
<g>
	<path fill="#FFFFFF" d="M1120.4,423c-6.3,0-11.4-5.1-11.4-11.4v-52.2c0-6.3,5.1-11.4,11.4-11.4h141.2c6.3,0,11.4,5.1,11.4,11.4
		v52.2c0,6.3-5.1,11.4-11.4,11.4H1120.4z"/>
	<path fill="#21282E" d="M1261.6,351c4.6,0,8.4,3.8,8.4,8.4v52.2c0,4.6-3.8,8.4-8.4,8.4h-141.2c-4.6,0-8.4-3.8-8.4-8.4v-52.2
		c0-4.6,3.8-8.4,8.4-8.4H1261.6 M1261.6,345h-141.2c-8,0-14.4,6.5-14.4,14.4v52.2c0,8,6.5,14.4,14.4,14.4h141.2
		c8,0,14.4-6.5,14.4-14.4v-52.2C1276,351.5,1269.5,345,1261.6,345L1261.6,345z"/>
</g>
<text transform="matrix(1 0 0 1 1143.5889 394.0938)" font-family="'MuseoSans-100'" font-size="24px">API CALL</text>
<g>
	<path fill="#FFFFFF" d="M661.4,484c-6.3,0-11.4-5.1-11.4-11.4V233.4c0-6.3,5.1-11.4,11.4-11.4h337.2c6.3,0,11.4,5.1,11.4,11.4
		v239.2c0,6.3-5.1,11.4-11.4,11.4H661.4z"/>
	<path fill="#21282E" d="M998.6,225c4.6,0,8.4,3.8,8.4,8.4v239.2c0,4.6-3.8,8.4-8.4,8.4H661.4c-4.6,0-8.4-3.8-8.4-8.4V233.4
		c0-4.6,3.8-8.4,8.4-8.4H998.6 M998.6,219H661.4c-8,0-14.4,6.5-14.4,14.4v239.2c0,8,6.5,14.4,14.4,14.4h337.2
		c8,0,14.4-6.5,14.4-14.4V233.4C1013,225.5,1006.5,219,998.6,219L998.6,219z"/>
</g>
<text transform="matrix(1 0 0 1 768.2935 266.0938)" font-family="'MuseoSans-100'" font-size="24px">REDUCERS</text>
<g>
	<path fill="#FFFFFF" d="M688.4,362c-6.3,0-11.4-5.1-11.4-11.4v-52.2c0-6.3,5.1-11.4,11.4-11.4H807c6.3,0,11.4,5.1,11.4,11.4v52.2
		c0,6.3-5.1,11.4-11.4,11.4H688.4z"/>
	<path fill="#21282E" d="M807,290c4.6,0,8.4,3.8,8.4,8.4v52.2c0,4.6-3.8,8.4-8.4,8.4H688.4c-4.6,0-8.4-3.8-8.4-8.4v-52.2
		c0-4.6,3.8-8.4,8.4-8.4H807 M807,284H688.4c-8,0-14.4,6.5-14.4,14.4v52.2c0,8,6.5,14.4,14.4,14.4H807c8,0,14.4-6.5,14.4-14.4v-52.2
		C821.4,290.5,815,284,807,284L807,284z"/>
</g>
<g>
	<path fill="#FFFFFF" d="M688.4,457c-6.3,0-11.4-5.1-11.4-11.4v-52.2c0-6.3,5.1-11.4,11.4-11.4H807c6.3,0,11.4,5.1,11.4,11.4v52.2
		c0,6.3-5.1,11.4-11.4,11.4H688.4z"/>
	<path fill="#21282E" d="M807,385c4.6,0,8.4,3.8,8.4,8.4v52.2c0,4.6-3.8,8.4-8.4,8.4H688.4c-4.6,0-8.4-3.8-8.4-8.4v-52.2
		c0-4.6,3.8-8.4,8.4-8.4H807 M807,379H688.4c-8,0-14.4,6.5-14.4,14.4v52.2c0,8,6.5,14.4,14.4,14.4H807c8,0,14.4-6.5,14.4-14.4v-52.2
		C821.4,385.5,815,379,807,379L807,379z"/>
</g>
<g>
	<path fill="#FFFFFF" d="M854,362c-6.3,0-11.4-5.1-11.4-11.4v-52.2c0-6.3,5.1-11.4,11.4-11.4h118.6c6.3,0,11.4,5.1,11.4,11.4v52.2
		c0,6.3-5.1,11.4-11.4,11.4H854z"/>
	<path fill="#21282E" d="M972.6,290c4.6,0,8.4,3.8,8.4,8.4v52.2c0,4.6-3.8,8.4-8.4,8.4H854c-4.6,0-8.4-3.8-8.4-8.4v-52.2
		c0-4.6,3.8-8.4,8.4-8.4H972.6 M972.6,284H854c-8,0-14.4,6.5-14.4,14.4v52.2c0,8,6.5,14.4,14.4,14.4h118.6c8,0,14.4-6.5,14.4-14.4
		v-52.2C987,290.5,980.5,284,972.6,284L972.6,284z"/>
</g>
<g>
	<path fill="#FFFFFF" d="M854,457c-6.3,0-11.4-5.1-11.4-11.4v-52.2c0-6.3,5.1-11.4,11.4-11.4h118.6c6.3,0,11.4,5.1,11.4,11.4v52.2
		c0,6.3-5.1,11.4-11.4,11.4H854z"/>
	<path fill="#21282E" d="M972.6,385c4.6,0,8.4,3.8,8.4,8.4v52.2c0,4.6-3.8,8.4-8.4,8.4H854c-4.6,0-8.4-3.8-8.4-8.4v-52.2
		c0-4.6,3.8-8.4,8.4-8.4H972.6 M972.6,379H854c-8,0-14.4,6.5-14.4,14.4v52.2c0,8,6.5,14.4,14.4,14.4h118.6c8,0,14.4-6.5,14.4-14.4
		v-52.2C987,385.5,980.5,379,972.6,379L972.6,379z"/>
</g>
<text transform="matrix(1 0 0 1 732.9023 330.0938)" font-family="'MuseoSans-100'" font-size="18px">SRP</text>
<text transform="matrix(1 0 0 1 730.2637 424.0938)" font-family="'MuseoSans-100'" font-size="18px">PDP</text>
<text transform="matrix(1 0 0 1 885.5889 330.0938)" font-family="'MuseoSans-100'" font-size="18px">INVEST</text>
<text transform="matrix(1 0 0 1 885.2861 426.0938)" font-family="'MuseoSans-100'" font-size="18px">MYRCA</text>
<g>
	<path fill="#FFFFFF" d="M641.4,648c-6.3,0-11.4-5.1-11.4-11.4V525.4c0-6.3,5.1-11.4,11.4-11.4h145.2c6.3,0,11.4,5.1,11.4,11.4
		v111.2c0,6.3-5.1,11.4-11.4,11.4H641.4z"/>
	<path fill="#21282E" d="M786.6,517c4.6,0,8.4,3.8,8.4,8.4v111.2c0,4.6-3.8,8.4-8.4,8.4H641.4c-4.6,0-8.4-3.8-8.4-8.4V525.4
		c0-4.6,3.8-8.4,8.4-8.4H786.6 M786.6,511H641.4c-8,0-14.4,6.5-14.4,14.4v111.2c0,8,6.5,14.4,14.4,14.4h145.2
		c8,0,14.4-6.5,14.4-14.4V525.4C801,517.5,794.5,511,786.6,511L786.6,511z"/>
</g>
<text transform="matrix(1 0 0 1 671.4937 574.0938)"><tspan x="0" y="0" font-family="'MuseoSans-100'" font-size="24px">ACTION</tspan><tspan x="-16" y="28.8" font-family="'MuseoSans-100'" font-size="24px">CREATORS</tspan></text>
<g>
	<path fill="#FFFFFF" d="M299.4,607c-6.3,0-11.4-5.1-11.4-11.4v-52.2c0-6.3,5.1-11.4,11.4-11.4h168.2c6.3,0,11.4,5.1,11.4,11.4v52.2
		c0,6.3-5.1,11.4-11.4,11.4H299.4z"/>
	<path fill="#21282E" d="M467.6,535c4.6,0,8.4,3.8,8.4,8.4v52.2c0,4.6-3.8,8.4-8.4,8.4H299.4c-4.6,0-8.4-3.8-8.4-8.4v-52.2
		c0-4.6,3.8-8.4,8.4-8.4H467.6 M467.6,529H299.4c-8,0-14.4,6.5-14.4,14.4v52.2c0,8,6.5,14.4,14.4,14.4h168.2c8,0,14.4-6.5,14.4-14.4
		v-52.2C482,535.5,475.5,529,467.6,529L467.6,529z"/>
</g>
<text transform="matrix(1 0 0 1 323.5889 576.0938)" font-family="'MuseoSans-100'" font-size="24px">CONNECT</text>
<g>
	<path fill="#FFFFFF" d="M906.5,726c-47.6,0-72.5-9.8-72.5-15V553h145v158C979,716.2,954.1,726,906.5,726z"/>
	<path fill="#21282E" d="M976,556v154.6c-0.9,1.3-6,4.9-20.6,7.9c-13.4,2.9-30.8,4.4-48.9,4.4s-35.5-1.6-48.9-4.4
		c-14.5-3.1-19.6-6.6-20.6-7.9V556H976 M982,550H831v161c0,9.9,33.8,18,75.5,18s75.5-8.1,75.5-18V550L982,550z"/>
</g>
<g>
	<path fill="#FFFFFF" d="M906.5,566c-47.6,0-72.5-9.8-72.5-15s24.9-15,72.5-15s72.5,9.8,72.5,15S954.1,566,906.5,566z"/>
	<path fill="#21282E" d="M906.5,539c18.1,0,35.5,1.6,48.9,4.4c13.3,2.8,18.7,6,20.2,7.6c-1.5,1.5-6.9,4.7-20.2,7.6
		c-13.4,2.9-30.8,4.4-48.9,4.4s-35.5-1.6-48.9-4.4c-13.3-2.8-18.7-6-20.2-7.6c1.5-1.5,6.9-4.7,20.2-7.6
		C871,540.6,888.4,539,906.5,539 M906.5,533c-41.7,0-75.5,8.1-75.5,18s33.8,18,75.5,18s75.5-8.1,75.5-18S948.2,533,906.5,533
		L906.5,533z"/>
</g>
<text transform="matrix(1 0 0 1 893.3019 628.0938)" font-family="'MuseoSans-100'" font-size="18px">SRP</text>
<text transform="matrix(1 0 0 1 879.3073 655.0938)" font-family="'MuseoSans-100'" font-size="18px">INVEST</text>
<text transform="matrix(1 0 0 1 891.6642 682.0938)" font-family="'MuseoSans-100'" font-size="18px">PDP</text>
<text transform="matrix(1 0 0 1 878.6862 707.0938)" font-family="'MuseoSans-100'" font-size="18px">MYRCA</text>
<text transform="matrix(1 0 0 1 871.441 598.0938)" font-family="'MuseoSans-100'" font-size="24px">STORE</text>
<g opacity="0.75">
	<path d="M452.6,456H168.4c-8,0-14.4-6.5-14.4-14.4V249.4c0-8,6.5-14.4,14.4-14.4h284.2c8,0,14.4,6.5,14.4,14.4v192.2
		C467,449.5,460.5,456,452.6,456z"/>
</g>
<g>
	<path fill="#21282E" d="M452.6,241c4.6,0,8.4,3.8,8.4,8.4v192.2c0,4.6-3.8,8.4-8.4,8.4H168.4c-4.6,0-8.4-3.8-8.4-8.4V249.4
		c0-4.6,3.8-8.4,8.4-8.4H452.6 M452.6,235H168.4c-8,0-14.4,6.5-14.4,14.4v192.2c0,8,6.5,14.4,14.4,14.4h284.2
		c8,0,14.4-6.5,14.4-14.4V249.4C467,241.5,460.5,235,452.6,235L452.6,235z"/>
</g>
<g>
	<rect x="201.5" y="270.5" fill="#FFFFFF" width="218" height="151"/>
	<g>
		<path fill="#21282E" d="M418,272v148H203V272H418 M421,269H200v154h221V269L421,269z"/>
	</g>
</g>
</svg>
